<svg height="512" viewBox="0 0 60 60" width="512" xmlns="http://www.w3.org/2000/svg"><g id="Page-1" fill="none" fill-rule="evenodd"><g id="016---Dislike" fill-rule="nonzero"><path id="Shape" d="m53 59h-46c-3.3137085 0-6-2.6862915-6-6v-3c0-.5522847.44771525-1 1-1h56c.5522847 0 1 .4477153 1 1v3c0 3.3137085-2.6862915 6-6 6z" fill="#7f8e94"/><path id="Shape" d="m58 49h-3c.5522847 0 1 .4477153 1 1v3c0 3.3137085-2.6862915 6-6 6h3c3.3137085 0 6-2.6862915 6-6v-3c0-.5522847-.4477153-1-1-1z" fill="#545c60"/><path id="Shape" d="m20 49h20v2c0 1.6568542-1.3431458 3-3 3h-14c-1.6568542 0-3-1.3431458-3-3z" fill="#607d8b"/><path id="Shape" d="m50.5 8h2.5c2.209139 0 4 1.790861 4 4v37h-54v-37c0-2.209139 1.790861-4 4-4z" fill="#f5f5f5"/><path id="Shape" d="m53 8h-3c2.209139 0 4 1.790861 4 4v37h3v-37c0-2.209139-1.790861-4-4-4z" fill="#cfd8dc"/><path id="Shape" d="m15 54h-3c-.5522847 0-1-.4477153-1-1s.4477153-1 1-1h3c.5522847 0 1 .4477153 1 1s-.4477153 1-1 1z" fill="#545c60"/><circle id="Oval" cx="6" cy="53" fill="#ffdc00" r="1"/><circle id="Oval" cx="9" cy="53" fill="#e91e63" r="1"/><rect id="Rectangle-path" fill="#ff5722" height="23" rx="2" width="14" x="8" y="1"/><path id="Shape" d="m20 1h-3c1.1032019.0032948 1.9967052.89679813 2 2v19c-.0032948 1.1032019-.8967981 1.9967052-2 2h3c1.1032019-.0032948 1.9967052-.8967981 2-2v-19c-.0032948-1.10320187-.8967981-1.9967052-2-2z" fill="#d84315"/><path id="Shape" d="m50.5 17h-2c1.3807119 0 2.5 1.1192881 2.5 2.5s-1.1192881 2.5-2.5 2.5h-8.1c-.6860842-.0033015-1.3259757.3453043-1.6952403.9235483s-.4163568 1.3054094-.1247597 1.9264517c1.2916383 2.5591009 2.1114116 5.3300702 2.42 8.18.0763685.7598506-.1726157 1.5165025-.6852773 2.0825266-.5126615.5660241-1.2410447.888473-2.0047227.8874734h-.07c-1.168907.0085382-2.2069373-.7456558-2.56-1.86-1.24-4.09-5.79-9.76-7.76-12.08-.5686826-.6750369-1.4073539-1.0632428-2.29-1.06h-3.63v-17h4c1.1463457-.09989014 2.2579727-.4442899 3.26-1.01 1.2743995-.64504796 2.6816635-.98402395 4.11-.99h13.13c1.3807119 0 2.5 1.11928813 2.5 2.5s-1.1192881 2.5-2.5 2.5h2c1.3807119 0 2.5 1.11928813 2.5 2.5 0 1.3807119-1.1192881 2.5-2.5 2.5h2c1.3807119 0 2.5 1.1192881 2.5 2.5s-1.1192881 2.5-2.5 2.5z" fill="#f44335"/><path id="Shape" d="m53 14.5c.0021341-.6636932-.2605727-1.3008186-.729877-1.770123-.4693044-.4693043-1.1064298-.7320111-1.770123-.729877h-2c1.3807119 0 2.5-1.1192881 2.5-2.5 0-1.38071187-1.1192881-2.5-2.5-2.5h-2c1.3807119 0 2.5-1.11928813 2.5-2.5s-1.1192881-2.5-2.5-2.5h-3c1.3807119 0 2.5 1.11928813 2.5 2.5s-1.1192881 2.5-2.5 2.5h2c1.3807119 0 2.5 1.11928813 2.5 2.5 0 1.3807119-1.1192881 2.5-2.5 2.5h2c1.3807119 0 2.5 1.1192881 2.5 2.5s-1.1192881 2.5-2.5 2.5h-2c1.3807119 0 2.5 1.1192881 2.5 2.5s-1.1192881 2.5-2.5 2.5h3c1.3807119 0 2.5-1.1192881 2.5-2.5s-1.1192881-2.5-2.5-2.5h2c1.3807119 0 2.5-1.1192881 2.5-2.5z" fill="#c81e1e"/><path id="Shape" d="m40.4 22h-3c-.6860842-.0033015-1.3259757.3453043-1.6952403.9235483s-.4163568 1.3054094-.1247597 1.9264517c1.2916383 2.5591009 2.1114116 5.3300702 2.42 8.18.0966069 1.0077293-.3786231 1.984827-1.231 2.531.4380365.2844831.9486954.4368823 1.471.439h.07c.763678.0009996 1.4920612-.3214493 2.0047227-.8874734.5126616-.5660241.7616458-1.322676.6852773-2.0825266-.3085884-2.8499298-1.1283617-5.6208991-2.42-8.18-.2915971-.6210423-.2445049-1.3482077.1247597-1.9264517s1.0091561-.9268498 1.6952403-.9235483z" fill="#c81e1e"/><g fill="#000"><path id="Shape" d="m9 41h3c.5522847 0 1-.4477153 1-1s-.4477153-1-1-1h-3c-.55228475 0-1 .4477153-1 1s.44771525 1 1 1z"/><path id="Shape" d="m16 41h8c.5522847 0 1-.4477153 1-1s-.4477153-1-1-1h-8c-.5522847 0-1 .4477153-1 1s.4477153 1 1 1z"/><path id="Shape" d="m18 43h-9c-.55228475 0-1 .4477153-1 1s.44771525 1 1 1h9c.5522847 0 1-.4477153 1-1s-.4477153-1-1-1z"/><path id="Shape" d="m24 43h-2c-.5522847 0-1 .4477153-1 1s.4477153 1 1 1h2c.5522847 0 1-.4477153 1-1s-.4477153-1-1-1z"/><path id="Shape" d="m36 41h3c.5522847 0 1-.4477153 1-1s-.4477153-1-1-1h-3c-.5522847 0-1 .4477153-1 1s.4477153 1 1 1z"/><path id="Shape" d="m43 41h8c.5522847 0 1-.4477153 1-1s-.4477153-1-1-1h-8c-.5522847 0-1 .4477153-1 1s.4477153 1 1 1z"/><path id="Shape" d="m36 45h9c.5522847 0 1-.4477153 1-1s-.4477153-1-1-1h-9c-.5522847 0-1 .4477153-1 1s.4477153 1 1 1z"/><path id="Shape" d="m51 43h-2c-.5522847 0-1 .4477153-1 1s.4477153 1 1 1h2c.5522847 0 1-.4477153 1-1s-.4477153-1-1-1z"/><path id="Shape" d="m58 48v-36c-.0033061-2.76005315-2.2399468-4.99669388-5-5h-2.058c-.3933185-.37785903-.8692163-.65894685-1.39-.821.2896095-.51249318.4437972-1.09035304.448-1.679 0-1.93299662-1.5670034-3.5-3.5-3.5h-13.127c-1.5839526.00927406-3.1441682.38580701-4.558 1.1-.8654996.49257782-1.8242709.79911216-2.815.9h-3c0-1.65685425-1.3431458-3-3-3h-10c-1.65685425 0-3 1.34314575-3 3v4c-2.76005315.00330612-4.99669388 2.23994685-5 5v36c-1.1045695 0-2 .8954305-2 2v3c.00440864 3.8641657 3.13583434 6.9955914 7 7h46c3.8641657-.0044086 6.9955914-3.1358343 7-7v-3c0-1.1045695-.8954305-2-2-2zm-35-43h3c1.3047743-.08996401 2.5729809-.47022101 3.712-1.113 1.1353609-.57468888 2.388508-.87830578 3.661-.887h13.127c.8284271.00000002 1.5.67157289 1.5 1.5s-.6715729 1.49999998-1.5 1.5h-6.5c-.5522847 0-1 .44771525-1 1s.4477153 1 1 1h8.5c.8284271 0 1.5.67157288 1.5 1.5 0 .8284271-.6715729 1.5-1.5 1.5h-7.5c-.5522847 0-1 .4477153-1 1s.4477153 1 1 1h9.5c.8284271 0 1.5.6715729 1.5 1.5s-.6715729 1.5-1.5 1.5h-10.5c-.5522847 0-1 .4477153-1 1s.4477153 1 1 1h8.5c.8284271 0 1.5.6715729 1.5 1.5s-.6715729 1.5-1.5 1.5h-8.1c-1.0409715-.0023525-2.0087563.5350955-2.557 1.42-.5468517.8635701-.6059229 1.9491931-.156 2.867 1.2336318 2.4539195 2.0199319 5.1081056 2.322 7.838.0496242.4814454-.1090558.961125-.436 1.318-.3409081.3707147-.8266574.5741451-1.33.557-.7262876.008139-1.3739395-.4557416-1.6-1.146-1.3-4.289-6-10.13-7.961-12.442-.7592265-.8972815-1.8756128-1.413944-3.051-1.412h-2.631zm-14-2c0-.55228475.44771525-1 1-1h10c.5522847 0 1 .44771525 1 1v19c0 .5522847-.4477153 1-1 1h-10c-.55228475 0-1-.4477153-1-1zm-5 9c0-1.6568542 1.34314575-3 3-3v13c0 1.6568542 1.34314575 3 3 3h10c1.6568542 0 3-1.3431458 3-3h2.631c.5859078-.0020032 1.1429847.25404 1.523.7 1.881 2.217 6.383 7.8 7.573 11.728.5865488 1.8114675 2.4421646 2.8914634 4.3069479 2.5067076 1.8647834-.3847559 3.1413918-2.1110154 2.9630521-4.0067076-.3242723-2.9678726-1.1763335-5.8539082-2.516-8.522-.1453397-.2986774-.1244955-.6515126.055-.931.1867262-.2968302.513325-.4763839.864-.475h8.1c1.9329966 0 3.5-1.5670034 3.5-3.5-.0042028-.588647-.1583905-1.1665068-.448-1.679 1.4552529-.4512555 2.4472-1.7973884 2.4472-3.321s-.9919471-2.8697445-2.4472-3.321c.2896095-.5124932.4437972-1.090353.448-1.679-.0047964-.16768656-.0218418-.33479834-.051-.5h1.051c1.6568542 0 3 1.3431458 3 3v36h-52zm35 38v1c0 1.1045695-.8954305 2-2 2h-14c-1.1045695 0-2-.8954305-2-2v-1zm19 3c-.0033061 2.7600532-2.2399468 4.9966939-5 5h-46c-2.76005315-.0033061-4.99669388-2.2399468-5-5v-3h17v1c0 2.209139 1.790861 4 4 4h14c2.209139 0 4-1.790861 4-4v-1h17z"/><circle id="Oval" cx="18" cy="20" r="1"/><path id="Shape" d="m12 10h2c.5522847 0 1-.44771525 1-1s-.4477153-1-1-1h-2c-.5522847 0-1 .44771525-1 1s.4477153 1 1 1z"/><path id="Shape" d="m12 14h2c.5522847 0 1-.4477153 1-1s-.4477153-1-1-1h-2c-.5522847 0-1 .4477153-1 1s.4477153 1 1 1z"/><path id="Shape" d="m12 6h4c.5522847 0 1-.44771525 1-1s-.4477153-1-1-1h-4c-.5522847 0-1 .44771525-1 1s.4477153 1 1 1z"/></g></g></g></svg>