<svg width="149" height="32" xmlns="http://www.w3.org/2000/svg">

 <g>
  <title>background</title>
  <rect fill="none" id="canvas_background" height="34" width="151" y="-1" x="-1"/>
 </g>
 <g>
  <title>Layer 1</title>
  <path id="svg_1" fill="#FF872C" d="m25.9591,10.7233c0.113,0.1503 0.2102,0.3123 0.2895,0.4843c4.677,1.1807 8.1201,5.0879 8.1201,9.7134c0,5.5575 -4.9703,10.079 -11.0794,10.079c-3.1896,0 -6.068,-1.2328 -8.0913,-3.2016l-7.68069,0c-1.65305,0 -2.99796,-1.2235 -2.99796,-2.7273c0,-0.8637 0.44408,-1.6343 1.13498,-2.1344c-0.6909,-0.5 -1.13498,-1.2707 -1.13498,-2.1344c0,-0.8636 0.44408,-1.6343 1.13498,-2.1344c-0.6909,-0.5 -1.13498,-1.2707 -1.13498,-2.1343c0,-0.8637 0.44408,-1.6344 1.13498,-2.1344c-0.6909,-0.5001 -1.13498,-1.2707 -1.13498,-2.1344c0,-1.5038 1.34491,-2.72727 2.99796,-2.72727l1.69971,0c-0.33186,-0.43885 -0.5266,-0.96978 -0.5266,-1.5415c0,-0.57171 0.1948,-1.10264 0.5266,-1.5415l-5.21906,0c-1.65305,0 -2.99796,-1.22347 -2.99796,-2.72726c0,-1.50379 1.34491,-2.72727 2.99796,-2.72727l15.96744,0c1.653,0 2.9979,1.22348 2.9979,2.72727c0,0.57172 -0.1948,1.10264 -0.5266,1.5415l5.2191,0c1.653,0 2.9979,1.22347 2.9979,2.72726c0,1.5038 -1.3449,2.72727 -2.9979,2.72727l-1.6967,0zm3.3912,-2.72727c0,-0.84996 -0.7601,-1.5415 -1.6945,-1.5415l-15.9674,0c-0.9344,0 -1.69452,0.69154 -1.69452,1.5415c0,0.84996 0.76012,1.5415 1.69452,1.5415l11.7963,0l4.1711,0c0.9344,0 1.6945,-0.69154 1.6945,-1.5415zm-27.04684,-4.26876c0,0.84996 0.76011,1.5415 1.6945,1.5415l15.96744,0c0.9343,0 1.6945,-0.69154 1.6945,-1.5415c0,-0.84996 -0.7602,-1.5415 -1.6945,-1.5415l-15.96744,0c-0.93439,0 -1.6945,0.69154 -1.6945,1.5415zm21.18124,6.99603l-15.96739,0c-0.93433,0 -1.6945,0.6915 -1.6945,1.5415c0,0.85 0.76017,1.5415 1.6945,1.5415l7.93169,0c2.0069,-1.8302 4.7807,-2.9644 7.8403,-2.9644c0.3149,0 0.6265,0.0127 0.9348,0.0363c-0.2255,-0.0994 -0.4769,-0.1549 -0.7394,-0.1549zm-9.1493,4.2688l-6.81809,0c-0.93439,0 -1.6945,0.6915 -1.6945,1.5415c0,0.85 0.76011,1.5415 1.6945,1.5415l5.14289,0c0.3633,-1.1209 0.9353,-2.1609 1.6752,-3.083zm-1.9744,4.2687l-4.84369,0c-0.93439,0 -1.6945,0.6915 -1.6945,1.5415c0,0.85 0.76011,1.5415 1.6945,1.5415l4.80349,0c-0.0726,-0.465 -0.111,-0.9399 -0.111,-1.4228c0,-0.5655 0.0523,-1.1199 0.1512,-1.6602zm-6.53819,5.8103c0,0.85 0.76011,1.5415 1.6945,1.5415l6.63329,0c-0.7007,-0.9281 -1.2349,-1.9676 -1.5637,-3.083l-5.06959,0c-0.93439,0 -1.6945,0.6915 -1.6945,1.5415zm7.69049,-4.1501c0,4.9037 4.3855,8.8932 9.776,8.8932c5.3904,0 9.7759,-3.9895 9.7759,-8.8932c0,-4.9038 -4.3855,-8.8933 -9.7759,-8.8933c-5.3905,0 -9.776,3.9895 -9.776,8.8933zm8.1135,-2.0265c0,0.7203 0.7444,1.3064 1.6593,1.3064c1.7468,0 3.1678,1.2017 3.1678,2.6788c0,1.2574 -1.0298,2.3146 -2.4135,2.6015l0,0.2964c0,0.3789 -0.3378,0.6861 -0.7543,0.6861c-0.4165,0 -0.7542,-0.3072 -0.7542,-0.6861l0,-0.2964c-1.3837,-0.2869 -2.4135,-1.3441 -2.4135,-2.6015c0,-0.3789 0.3377,-0.6861 0.7542,-0.6861c0.4165,0 0.7542,0.3072 0.7542,0.6861c0,0.7205 0.7444,1.3066 1.6593,1.3066c0.915,0 1.6593,-0.5861 1.6593,-1.3066c0,-0.7204 -0.7443,-1.3065 -1.6593,-1.3065c-1.7467,0 -3.1677,-1.2017 -3.1677,-2.6787c0,-1.2574 1.0298,-2.3146 2.4135,-2.6015l0,-0.3569c0,-0.3788 0.3377,-0.6861 0.7542,-0.6861c0.4165,0 0.7543,0.3073 0.7543,0.6861l0,0.3569c1.3837,0.2869 2.4135,1.3441 2.4135,2.6015c0,0.3788 -0.3377,0.6861 -0.7542,0.6861c-0.4165,0 -0.7543,-0.3073 -0.7543,-0.6861c0,-0.7205 -0.7443,-1.3066 -1.6593,-1.3066c-0.9149,0 -1.6593,0.5861 -1.6593,1.3066z" clip-rule="evenodd" fill-rule="evenodd"/>
  <path id="svg_2" fill="#FF872C" d="m26.2486,11.2076l-0.227,0.1047l0.05,0.1084l0.1158,0.0293l0.0612,-0.2424zm-0.2895,-0.4843l0,-0.25l-0.501,0l0.3012,0.4003l0.1998,-0.1503zm-10.7611,17.0751l0.1743,-0.1792l-0.0728,-0.0708l-0.1015,0l0,0.25zm-9.54367,-4.8617l0.14658,0.2025l0.27982,-0.2025l-0.27982,-0.2025l-0.14658,0.2025zm0,-4.2688l0.14658,0.2026l0.27982,-0.2026l-0.27982,-0.2025l-0.14658,0.2025zm0,-4.2687l0.14658,0.2025l0.27982,-0.2025l-0.27982,-0.2025l-0.14658,0.2025zm3.56269,-4.86167l0,0.25l0.50248,0l-0.30308,-0.40079l-0.1994,0.15079zm0,-3.083l0.19942,0.15078l0.303,-0.40078l-0.50242,0l0,0.25zm13.21968,-1.18576l-0.1994,-0.15078l-0.303,0.40078l0.5024,0l0,-0.25zm-6.9877,8.53753l0,0.25l0.0969,0l0.0716,-0.0653l-0.1685,-0.1847zm8.7751,-2.9281l-0.019,0.2492l0.1198,-0.478l-0.1008,0.2288zm-9.8887,4.1139l0.195,0.1564l0.3261,-0.4064l-0.5211,0l0,0.25zm-1.6752,3.083l0,0.25l0.1818,0l0.0561,-0.173l-0.2379,-0.077zm-0.2992,1.1857l0.2459,0.045l0.054,-0.295l-0.2999,0l0,0.25zm-0.0402,3.083l0,0.25l0.292,0l-0.045,-0.2885l-0.247,0.0385zm1.8298,4.2688l0,0.25l0.5019,0l-0.3024,-0.4006l-0.1995,0.1506zm-1.5637,-3.083l0.2398,-0.0707l-0.0529,-0.1793l-0.1869,0l0,0.25zm11.4535,1.9516l-0.0508,-0.2448l-0.1992,0.0413l0,0.2035l0.25,0zm-1.5085,0l0.25,0l0,-0.2035l-0.1992,-0.0413l-0.0508,0.2448zm0,-9.1882l0.0508,0.2448l0.1992,-0.0413l0,-0.2035l-0.25,0zm1.5085,0l-0.25,0l0,0.2035l0.1992,0.0413l0.0508,-0.2448zm2.4352,-5.1902c-0.0868,-0.1882 -0.1931,-0.3655 -0.3168,-0.5298l-0.3995,0.3006c0.1025,0.1363 0.1905,0.2831 0.2623,0.4387l0.454,-0.2095zm8.1431,9.8182c0,-4.7574 -3.5386,-8.7515 -8.3089,-9.9558l-0.1224,0.4848c4.5837,1.1571 7.9313,4.9773 7.9313,9.471l0.5,0zm-11.3294,10.329c6.2244,0 11.3294,-4.6116 11.3294,-10.329l-0.5,0c0,5.3977 -4.8355,9.829 -10.8294,9.829l0,0.5zm-8.2657,-3.2725c2.0705,2.0147 5.0116,3.2725 8.2657,3.2725l0,-0.5c-3.125,0 -5.9408,-1.2079 -7.917,-3.1308l-0.3487,0.3583zm-7.50629,0.0709l7.68069,0l0,-0.5l-7.68069,0l0,0.5zm-3.24796,-2.9773c0,1.6636 1.47962,2.9773 3.24796,2.9773l0,-0.5c-1.53777,0 -2.74796,-1.1333 -2.74796,-2.4773l-0.5,0zm1.23841,-2.3369c-0.74786,0.5413 -1.23841,1.3837 -1.23841,2.3369l0.5,0c0,-0.7741 0.39762,-1.473 1.03156,-1.9319l-0.29315,-0.405zm-1.23841,-1.9319c0,0.9533 0.49055,1.7957 1.23841,2.3369l0.29315,-0.405c-0.63394,-0.4588 -1.03156,-1.1578 -1.03156,-1.9319l-0.5,0zm1.23841,-2.3369c-0.74786,0.5413 -1.23841,1.3837 -1.23841,2.3369l0.5,0c0,-0.774 0.39762,-1.473 1.03156,-1.9318l-0.29315,-0.4051zm-1.23841,-1.9318c0,0.9532 0.49055,1.7956 1.23841,2.3369l0.29315,-0.4051c-0.63394,-0.4588 -1.03156,-1.1578 -1.03156,-1.9318l-0.5,0zm1.23841,-2.3369c-0.74786,0.5412 -1.23841,1.3836 -1.23841,2.3369l0.5,0c0,-0.7741 0.39762,-1.4731 1.03156,-1.9319l-0.29315,-0.405zm-1.23841,-1.9319c0,0.9532 0.49055,1.7956 1.23841,2.3369l0.29315,-0.405c-0.63394,-0.4589 -1.03156,-1.1578 -1.03156,-1.9319l-0.5,0zm3.24796,-2.97727c-1.76834,0 -3.24796,1.31367 -3.24796,2.97727l0.5,0c0,-1.344 1.21019,-2.47727 2.74796,-2.47727l0,-0.5zm1.69971,0l-1.69971,0l0,0.5l1.69971,0l0,-0.5zm-0.7766,-1.2915c0,0.63003 0.21492,1.21322 0.57719,1.69229l0.39881,-0.30158c-0.30145,-0.39863 -0.476,-0.8773 -0.476,-1.39071l-0.5,0zm0.57718,-1.69227c-0.36218,0.47905 -0.57718,1.06223 -0.57718,1.69227l0.5,0c0,-0.51339 0.17461,-0.99206 0.47602,-1.39072l-0.39884,-0.30155zm-5.01964,0.40077l5.21906,0l0,-0.5l-5.21906,0l0,0.5zm-3.24796,-2.97726c0,1.6636 1.47963,2.97726 3.24796,2.97726l0,-0.5c-1.53777,0 -2.74796,-1.13328 -2.74796,-2.47726l-0.5,0zm3.24796,-2.97727c-1.76833,0 -3.24796,1.31367 -3.24796,2.97727l0.5,0c0,-1.34399 1.21019,-2.47727 2.74796,-2.47727l0,-0.5zm15.96744,0l-15.96744,0l0,0.5l15.96744,0l0,-0.5zm3.2479,2.97727c0,-1.6636 -1.4796,-2.97727 -3.2479,-2.97727l0,0.5c1.5377,0 2.7479,1.13328 2.7479,2.47727l0.5,0zm-0.5772,1.69227c0.3622,-0.47905 0.5772,-1.06223 0.5772,-1.69227l-0.5,0c0,0.51339 -0.1746,0.99206 -0.476,1.39072l0.3988,0.30155zm5.0197,-0.40077l-5.2191,0l0,0.5l5.2191,0l0,-0.5zm3.2479,2.97726c0,-1.6636 -1.4796,-2.97726 -3.2479,-2.97726l0,0.5c1.5377,0 2.7479,1.13328 2.7479,2.47726l0.5,0zm-3.2479,2.97727c1.7683,0 3.2479,-1.31367 3.2479,-2.97727l-0.5,0c0,1.34399 -1.2102,2.47727 -2.7479,2.47727l0,0.5zm-1.6967,0l1.6967,0l0,-0.5l-1.6967,0l0,0.5zm1.6967,-4.26877c0.8191,0 1.4445,0.60135 1.4445,1.2915l0.5,0c0,-1.00976 -0.8948,-1.7915 -1.9445,-1.7915l0,0.5zm-15.9674,0l15.9674,0l0,-0.5l-15.9674,0l0,0.5zm-1.4445,1.2915c0,-0.69015 0.6254,-1.2915 1.4445,-1.2915l0,-0.5c-1.0497,0 -1.94452,0.78174 -1.94452,1.7915l0.50002,0zm1.4445,1.2915c-0.8191,0 -1.4445,-0.60134 -1.4445,-1.2915l-0.50002,0c0,1.00977 0.89482,1.7915 1.94452,1.7915l0,-0.5zm11.7963,0l-11.7963,0l0,0.5l11.7963,0l0,-0.5zm4.1711,0l-4.1711,0l0,0.5l4.1711,0l0,-0.5zm1.4445,-1.2915c0,0.69016 -0.6254,1.2915 -1.4445,1.2915l0,0.5c1.0497,0 1.9445,-0.78173 1.9445,-1.7915l-0.5,0zm-25.10234,-2.97726c-0.8191,0 -1.4445,-0.60135 -1.4445,-1.2915l-0.5,0c0,1.00976 0.89483,1.7915 1.9445,1.7915l0,-0.5zm15.96744,0l-15.96744,0l0,0.5l15.96744,0l0,-0.5zm1.4445,-1.2915c0,0.69015 -0.6254,1.2915 -1.4445,1.2915l0,0.5c1.0496,0 1.9445,-0.78174 1.9445,-1.7915l-0.5,0zm-1.4445,-1.2915c0.8191,0 1.4445,0.60134 1.4445,1.2915l0.5,0c0,-1.00976 -0.8949,-1.7915 -1.9445,-1.7915l0,0.5zm-15.96744,0l15.96744,0l0,-0.5l-15.96744,0l0,0.5zm-1.4445,1.2915c0,-0.69016 0.6254,-1.2915 1.4445,-1.2915l0,-0.5c-1.04967,0 -1.9445,0.78174 -1.9445,1.7915l0.5,0zm4.96385,7.24603l15.96739,0l0,-0.5l-15.96739,0l0,0.5zm-1.4445,1.2915c0,-0.6902 0.62546,-1.2915 1.4445,-1.2915l0,-0.5c-1.04961,0 -1.9445,0.7817 -1.9445,1.7915l0.5,0zm1.4445,1.2915c-0.81904,0 -1.4445,-0.6014 -1.4445,-1.2915l-0.5,0c0,1.0098 0.89489,1.7915 1.9445,1.7915l0,-0.5zm7.93169,0l-7.93169,0l0,0.5l7.93169,0l0,-0.5zm7.8403,-2.9644c-3.1215,0 -5.9555,1.1572 -8.0088,3.0297l0.337,0.3694c1.9605,-1.7879 4.6741,-2.8991 7.6718,-2.8991l0,-0.5zm0.9538,0.037c-0.3142,-0.024 -0.6322,-0.037 -0.9538,-0.037l0,0.5c0.3082,0 0.6134,0.0125 0.9158,0.0355l0.038,-0.4985zm-0.7584,0.3444c0.2272,0 0.4443,0.048 0.6386,0.1336l0.2016,-0.4575c-0.2567,-0.1131 -0.5424,-0.1761 -0.8402,-0.1761l0,0.5zm-15.96739,4.2688l6.81809,0l0,-0.5l-6.81809,0l0,0.5zm-1.4445,1.2915c0,-0.6902 0.6254,-1.2915 1.4445,-1.2915l0,-0.5c-1.04968,0 -1.9445,0.7817 -1.9445,1.7915l0.5,0zm1.4445,1.2915c-0.81911,0 -1.4445,-0.6013 -1.4445,-1.2915l-0.5,0c0,1.0098 0.89483,1.7915 1.9445,1.7915l0,-0.5zm5.14289,0l-5.14289,0l0,0.5l5.14289,0l0,-0.5zm1.4802,-2.9895c-0.7579,0.9446 -1.3449,2.0114 -1.718,3.1624l0.4757,0.1541c0.3535,-1.0906 0.9105,-2.104 1.6323,-3.0036l-0.39,-0.3129zm-6.62309,4.6752l4.84369,0l0,-0.5l-4.84369,0l0,0.5zm-1.4445,1.2915c0,-0.6902 0.62539,-1.2915 1.4445,-1.2915l0,-0.5c-1.04967,0 -1.9445,0.7817 -1.9445,1.7915l0.5,0zm1.4445,1.2915c-0.81911,0 -1.4445,-0.6013 -1.4445,-1.2915l-0.5,0c0,1.0099 0.89483,1.7915 1.9445,1.7915l0,-0.5zm4.80349,0l-4.80349,0l0,0.5l4.80349,0l0,-0.5zm-0.361,-1.1728c0,0.4962 0.0395,0.984 0.1139,1.4614l0.4941,-0.0771c-0.0706,-0.4526 -0.108,-0.9146 -0.108,-1.3843l-0.5,0zm0.1553,-1.7052c-0.1016,0.5548 -0.1553,1.1243 -0.1553,1.7052l0.5,0c0,-0.55 0.0509,-1.0894 0.1471,-1.6152l-0.4918,-0.09zm-4.59779,7.1468c-0.81911,0 -1.4445,-0.6013 -1.4445,-1.2915l-0.5,0c0,1.0098 0.89483,1.7915 1.9445,1.7915l0,-0.5zm6.63329,0l-6.63329,0l0,0.5l6.63329,0l0,-0.5zm-1.8035,-2.7623c0.3377,1.1455 0.886,2.2119 1.6039,3.1629l0.3991,-0.3012c-0.6833,-0.9052 -1.2035,-1.9179 -1.5234,-3.0031l-0.4796,0.1414zm-4.82979,0.1793l5.06959,0l0,-0.5l-5.06959,0l0,0.5zm-1.4445,1.2915c0,-0.6902 0.62539,-1.2915 1.4445,-1.2915l0,-0.5c-1.04967,0 -1.9445,0.7817 -1.9445,1.7915l0.5,0zm17.21649,4.4931c-5.2752,0 -9.526,-3.8993 -9.526,-8.6432l-0.5,0c0,5.0635 4.5202,9.1432 10.026,9.1432l0,-0.5zm9.5259,-8.6432c0,4.7439 -4.2508,8.6432 -9.5259,8.6432l0,0.5c5.5057,0 10.0259,-4.0797 10.0259,-9.1432l-0.5,0zm-9.5259,-8.6433c5.2751,0 9.5259,3.8993 9.5259,8.6433l0.5,0c0,-5.0636 -4.5202,-9.1433 -10.0259,-9.1433l0,0.5zm-9.526,8.6433c0,-4.744 4.2508,-8.6433 9.526,-8.6433l0,-0.5c-5.5058,0 -10.026,4.0797 -10.026,9.1433l0.5,0zm9.5228,-0.9701c-0.8358,0 -1.4093,-0.5265 -1.4093,-1.0564l-0.5,0c0,0.9108 0.9153,1.5564 1.9093,1.5564l0,-0.5zm3.4178,2.9288c0,-1.6528 -1.5739,-2.9288 -3.4178,-2.9288l0,0.5c1.6496,0 2.9178,1.1274 2.9178,2.4288l0.5,0zm-2.6128,2.8463c1.4682,-0.3045 2.6128,-1.4409 2.6128,-2.8463l-0.5,0c0,1.1093 -0.915,2.0873 -2.2143,2.3567l0.1015,0.4896zm0.1993,0.0516l0,-0.2964l-0.5,0l0,0.2964l0.5,0zm-1.0043,0.9361c0.5318,0 1.0043,-0.3974 1.0043,-0.9361l-0.5,0c0,0.2191 -0.2031,0.4361 -0.5043,0.4361l0,0.5zm-1.0042,-0.9361c0,0.5387 0.4725,0.9361 1.0042,0.9361l0,-0.5c-0.3012,0 -0.5042,-0.217 -0.5042,-0.4361l-0.5,0zm0,-0.2964l0,0.2964l0.5,0l0,-0.2964l-0.5,0zm-2.4135,-2.6015c0,1.4054 1.1446,2.5418 2.6127,2.8463l0.1016,-0.4896c-1.2993,-0.2694 -2.2143,-1.2474 -2.2143,-2.3567l-0.5,0zm1.0042,-0.9361c-0.5318,0 -1.0042,0.3974 -1.0042,0.9361l0.5,0c0,-0.219 0.203,-0.4361 0.5042,-0.4361l0,-0.5zm1.0042,0.9361c0,-0.5387 -0.4724,-0.9361 -1.0042,-0.9361l0,0.5c0.3012,0 0.5042,0.217 0.5042,0.4361l0.5,0zm1.4093,1.0566c-0.8358,0 -1.4093,-0.5266 -1.4093,-1.0566l-0.5,0c0,0.9109 0.9153,1.5566 1.9093,1.5566l0,-0.5zm1.4093,-1.0566c0,0.53 -0.5734,1.0566 -1.4093,1.0566l0,0.5c0.9941,0 1.9093,-0.6457 1.9093,-1.5566l-0.5,0zm-1.4093,-1.0565c0.8359,0 1.4093,0.5265 1.4093,1.0565l0.5,0c0,-0.9109 -0.9152,-1.5565 -1.9093,-1.5565l0,0.5zm-3.4177,-2.9287c0,1.6527 1.5739,2.9287 3.4177,2.9287l0,-0.5c-1.6496,0 -2.9177,-1.1274 -2.9177,-2.4287l-0.5,0zm2.6127,-2.8463c-1.4681,0.3045 -2.6127,1.4409 -2.6127,2.8463l0.5,0c0,-1.1093 0.915,-2.0873 2.2143,-2.3567l-0.1016,-0.4896zm-0.1992,-0.1121l0,0.3569l0.5,0l0,-0.3569l-0.5,0zm1.0042,-0.9361c-0.5317,0 -1.0042,0.3974 -1.0042,0.9361l0.5,0c0,-0.219 0.203,-0.4361 0.5042,-0.4361l0,-0.5zm1.0043,0.9361c0,-0.5387 -0.4725,-0.9361 -1.0043,-0.9361l0,0.5c0.3012,0 0.5043,0.2171 0.5043,0.4361l0.5,0zm0,0.3569l0,-0.3569l-0.5,0l0,0.3569l0.5,0zm2.4135,2.6015c0,-1.4054 -1.1446,-2.5418 -2.6128,-2.8463l-0.1015,0.4896c1.2993,0.2694 2.2143,1.2474 2.2143,2.3567l0.5,0zm-1.0042,0.9361c0.5318,0 1.0042,-0.3974 1.0042,-0.9361l-0.5,0c0,0.219 -0.203,0.4361 -0.5042,0.4361l0,0.5zm-1.0043,-0.9361c0,0.5387 0.4725,0.9361 1.0043,0.9361l0,-0.5c-0.3012,0 -0.5043,-0.2171 -0.5043,-0.4361l-0.5,0zm-1.4093,-1.0566c0.8359,0 1.4093,0.5266 1.4093,1.0566l0.5,0c0,-0.9109 -0.9152,-1.5566 -1.9093,-1.5566l0,0.5zm-1.4093,1.0566c0,-0.53 0.5735,-1.0566 1.4093,-1.0566l0,-0.5c-0.994,0 -1.9093,0.6457 -1.9093,1.5566l0.5,0z"/>
  <path id="svg_5" fill="white" d="m44.53145,22.528l2.76,0l0,-10.992l2.448,0l0,-2.232l-2.448,0l0,-0.936c0,-1.512 0.576,-2.088 2.256,-2.088l0,-2.28c-3.456,0 -5.016,1.32 -5.016,4.368l0,0.936l-1.56,0l0,2.232l1.56,0l0,10.992z"/>
  <path id="svg_6" fill="white" d="m52.16425,22.528l2.736,0l0,-13.224l-2.736,0l0,13.224zm1.392,-14.976c0.96,0 1.728,-0.768 1.728,-1.752c0,-0.984 -0.768,-1.752 -1.728,-1.752c-0.984,0 -1.752,0.768 -1.752,1.752c0,0.984 0.768,1.752 1.752,1.752z"/>
  <path id="svg_7" fill="white" d="m67.87615,22.528l2.712,0l0,-7.8c0,-3.696 -2.328,-5.64 -5.424,-5.64c-1.584,0 -3.048,0.648 -3.936,1.728l0,-1.512l-2.736,0l0,13.224l2.736,0l0,-7.392c0,-2.424 1.32,-3.672 3.336,-3.672c1.992,0 3.312,1.248 3.312,3.672l0,7.392z"/>
  <path id="svg_8" fill="white" d="m73.16615,15.856c0,4.08 2.76,6.888 6.192,6.888c2.208,0 3.792,-1.056 4.632,-2.184l0,1.968l2.76,0l0,-13.224l-2.76,0l0,1.92c-0.816,-1.08 -2.352,-2.136 -4.584,-2.136c-3.48,0 -6.24,2.688 -6.24,6.768zm10.824,0.048c0,2.856 -1.944,4.464 -4.008,4.464c-2.04,0 -4.008,-1.656 -4.008,-4.512c0,-2.856 1.968,-4.392 4.008,-4.392c2.064,0 4.008,1.608 4.008,4.44z"/>
  <path id="svg_9" fill="white" d="m99.72815,22.528l2.712,0l0,-7.8c0,-3.696 -2.328,-5.64 -5.424,-5.64c-1.584,0 -3.048,0.648 -3.936,1.728l0,-1.512l-2.736,0l0,13.224l2.736,0l0,-7.392c0,-2.424 1.32,-3.672 3.336,-3.672c1.992,0 3.312,1.248 3.312,3.672l0,7.392z"/>
  <path id="svg_10" fill="white" d="m105.01815,15.904c0,4.152 2.688,6.84 6.48,6.84c3.24,0 5.352,-1.8 6.096,-4.392l-2.952,0c-0.504,1.368 -1.512,2.088 -3.144,2.088c-2.208,0 -3.672,-1.632 -3.672,-4.536c0,-2.88 1.464,-4.512 3.672,-4.512c1.632,0 2.688,0.816 3.144,2.088l2.952,0c-0.744,-2.784 -2.856,-4.392 -6.096,-4.392c-3.792,0 -6.48,2.688 -6.48,6.816z"/>
  <path id="svg_11" fill="white" d="m125.88815,11.392c2.04,0 3.648,1.296 3.696,3.336l-7.32,0c0.288,-2.088 1.776,-3.336 3.624,-3.336zm6.192,7.2l-2.952,0c-0.504,1.032 -1.44,1.848 -3.12,1.848c-2.016,0 -3.576,-1.32 -3.768,-3.504l10.104,0c0.072,-0.456 0.096,-0.888 0.096,-1.344c0,-3.888 -2.664,-6.504 -6.432,-6.504c-3.912,0 -6.6,2.664 -6.6,6.816c0,4.152 2.808,6.84 6.6,6.84c3.24,0 5.328,-1.848 6.072,-4.152z"/>
  <path id="svg_12" fill="white" d="m144.99715,18.832c-0.144,-4.776 -7.608,-3.288 -7.608,-5.952c0,-0.888 0.768,-1.488 2.232,-1.488c1.488,0 2.376,0.792 2.472,1.944l2.736,0c-0.144,-2.64 -2.112,-4.248 -5.112,-4.248c-3.12,0 -5.088,1.704 -5.088,3.816c0,4.848 7.68,3.36 7.68,5.952c0,0.912 -0.84,1.584 -2.424,1.584c-1.512,0 -2.544,-0.888 -2.64,-1.968l-2.832,0c0.12,2.4 2.352,4.272 5.52,4.272c3.12,0 5.064,-1.68 5.064,-3.912z"/>
 </g>
</svg>